<?xml version="1.0" encoding="utf-8"?>
<!-- Generator: Adobe Illustrator 24.1.3, SVG Export Plug-In . SVG Version: 6.00 Build 0)  -->
<svg version="1.1" id="Layer_1" xmlns="http://www.w3.org/2000/svg" xmlns:xlink="http://www.w3.org/1999/xlink" x="0px" y="0px"
	 viewBox="0 0 73.1 71.5" style="enable-background:new 0 0 73.1 71.5;" xml:space="preserve">
<style type="text/css">
	.st0{fill:#F2F2F2;}
	.st1{fill:#FFFFFF;}
	.st2{fill:#E6E6E6;}
	.st3{fill:#3E7AC0;}
	.st4{fill:#CCCCCC;}
</style>
<g>
	<path class="st0" d="M37.3,6.8l-2.1,0.5L9.2,14L7,14.6c-1,0.3-1.9,0.9-2.4,1.8c-0.5,0.9-0.7,2-0.4,3l9.2,35.5
		c0.3,1,0.9,1.9,1.8,2.4c0.9,0.5,2,0.7,3,0.4l0,0L48.5,50l0,0c1-0.3,1.9-0.9,2.4-1.8c0.5-0.9,0.7-2,0.4-3L42.2,9.7
		c-0.3-1-0.9-1.9-1.8-2.4C39.5,6.7,38.4,6.5,37.3,6.8z"/>
	<path class="st1" d="M37.6,7.9l-2.5,0.6L9.8,15.1l-2.5,0.6C6.6,15.9,6,16.4,5.6,17c-0.4,0.6-0.5,1.4-0.3,2.2l9.2,35.5
		c0.2,0.7,0.7,1.4,1.3,1.7c0.7,0.4,1.4,0.5,2.2,0.3l0,0l30.3-7.8l0,0c0.7-0.2,1.4-0.7,1.7-1.3c0.4-0.6,0.5-1.4,0.3-2.2L41.1,10
		c-0.2-0.7-0.7-1.4-1.3-1.7C39.1,7.8,38.4,7.7,37.6,7.9z"/>
	<path class="st0" d="M35.7,19.4l-15.3,3.9c-0.2,0-0.4,0-0.5-0.1c-0.2-0.1-0.3-0.2-0.3-0.4c0-0.2,0-0.4,0.1-0.5
		c0.1-0.2,0.2-0.3,0.4-0.3l15.3-3.9c0.2,0,0.4,0,0.5,0.1c0.2,0.1,0.3,0.2,0.3,0.4c0,0.2,0,0.4-0.1,0.5S35.9,19.3,35.7,19.4z"/>
	<path class="st0" d="M39,20.9l-18,4.6c-0.2,0-0.4,0-0.5-0.1c-0.2-0.1-0.3-0.2-0.3-0.4c0-0.2,0-0.4,0.1-0.5c0.1-0.2,0.2-0.3,0.4-0.3
		l18-4.6c0.2,0,0.4,0,0.5,0.1c0.2,0.1,0.3,0.2,0.3,0.4c0,0.2,0,0.4-0.1,0.5C39.3,20.7,39.1,20.8,39,20.9z"/>
	<path class="st0" d="M38.2,29.1l-15.3,3.9c-0.1,0-0.2,0-0.3,0c-0.1,0-0.2,0-0.2-0.1c-0.1,0-0.1-0.1-0.2-0.2
		c-0.1-0.1-0.1-0.1-0.1-0.2c0-0.1,0-0.2,0-0.3c0-0.1,0-0.2,0.1-0.2c0-0.1,0.1-0.1,0.2-0.2c0.1-0.1,0.1-0.1,0.2-0.1l15.3-3.9
		c0.1,0,0.2,0,0.3,0c0.1,0,0.2,0,0.2,0.1c0.1,0,0.1,0.1,0.2,0.2c0.1,0.1,0.1,0.1,0.1,0.2c0,0.1,0,0.2,0,0.3c0,0.1,0,0.2-0.1,0.2
		c0,0.1-0.1,0.1-0.2,0.2C38.4,29.1,38.3,29.1,38.2,29.1z"/>
	<path class="st0" d="M41.5,30.6l-18,4.6c-0.1,0-0.2,0-0.3,0c-0.1,0-0.2,0-0.2-0.1c-0.1,0-0.1-0.1-0.2-0.2c-0.1-0.1-0.1-0.1-0.1-0.2
		c0-0.1,0-0.2,0-0.3c0-0.1,0-0.2,0.1-0.2c0-0.1,0.1-0.1,0.2-0.2c0.1-0.1,0.1-0.1,0.2-0.1l18-4.6c0.2,0,0.4,0,0.5,0.1
		c0.2,0.1,0.3,0.2,0.3,0.4c0,0.2,0,0.4-0.1,0.5C41.8,30.4,41.6,30.6,41.5,30.6z"/>
	<path class="st0" d="M40.8,38.8l-15.3,3.9c-0.2,0-0.4,0-0.5-0.1c-0.2-0.1-0.3-0.2-0.3-0.4c0-0.2,0-0.4,0.1-0.5
		c0.1-0.2,0.2-0.3,0.4-0.3l15.3-3.9c0.2,0,0.4,0,0.5,0.1c0.2,0.1,0.3,0.2,0.3,0.4c0,0.2,0,0.4-0.1,0.5
		C41.1,38.7,40.9,38.8,40.8,38.8z"/>
	<path class="st0" d="M44,40.3l-18,4.6c-0.1,0-0.2,0-0.3,0c-0.1,0-0.2,0-0.2-0.1c-0.1,0-0.1-0.1-0.2-0.2c-0.1-0.1-0.1-0.1-0.1-0.2
		c0-0.1,0-0.2,0-0.3c0-0.1,0-0.2,0.1-0.2c0-0.1,0.1-0.1,0.2-0.2c0.1-0.1,0.1-0.1,0.2-0.1l18-4.6c0.2,0,0.4,0,0.5,0.1
		c0.2,0.1,0.3,0.2,0.3,0.4c0,0.2,0,0.4-0.1,0.5C44.3,40.2,44.2,40.3,44,40.3z"/>
	<path class="st2" d="M17.8,27.4l-5.4,1.4c-0.1,0-0.2,0-0.2,0c-0.1,0-0.1-0.1-0.1-0.2l-1.2-4.8c0-0.1,0-0.2,0-0.2
		c0-0.1,0.1-0.1,0.2-0.1l5.4-1.4c0.1,0,0.2,0,0.2,0c0.1,0,0.1,0.1,0.1,0.2L18,27c0,0.1,0,0.2,0,0.2C18,27.3,17.9,27.3,17.8,27.4z"/>
	<path class="st2" d="M20.3,37.1l-5.4,1.4c-0.1,0-0.2,0-0.2,0c-0.1,0-0.1-0.1-0.1-0.2l-1.2-4.8c0-0.1,0-0.2,0-0.2
		c0-0.1,0.1-0.1,0.2-0.1l5.4-1.4c0.1,0,0.2,0,0.2,0c0.1,0,0.1,0.1,0.1,0.2l1.2,4.8c0,0.1,0,0.2,0,0.2C20.5,37,20.4,37.1,20.3,37.1z"
		/>
	<path class="st2" d="M22.8,46.8l-5.4,1.4c-0.1,0-0.2,0-0.2,0c-0.1,0-0.1-0.1-0.1-0.2l-1.2-4.8c0-0.1,0-0.2,0-0.2
		c0-0.1,0.1-0.1,0.2-0.1l5.4-1.4c0.1,0,0.2,0,0.2,0c0.1,0,0.1,0.1,0.1,0.2l1.2,4.8c0,0.1,0,0.2,0,0.2C23,46.7,22.9,46.8,22.8,46.8z"
		/>
	<path class="st2" d="M58.5,15.8H27.2c-1.1,0-2.1,0.4-2.8,1.2c-0.7,0.7-1.2,1.8-1.2,2.8v36.6c0,1.1,0.4,2.1,1.2,2.8
		c0.7,0.7,1.8,1.2,2.8,1.2h31.3c1.1,0,2.1-0.4,2.8-1.2c0.7-0.7,1.2-1.8,1.2-2.8V19.8c0-1.1-0.4-2.1-1.2-2.8
		C60.5,16.2,59.5,15.8,58.5,15.8z"/>
	<path class="st1" d="M58.5,16.9H27.2c-0.8,0-1.5,0.3-2,0.8c-0.5,0.5-0.8,1.3-0.8,2v36.6c0,0.8,0.3,1.5,0.8,2c0.5,0.5,1.3,0.8,2,0.8
		h31.3c0.8,0,1.5-0.3,2-0.8c0.5-0.5,0.8-1.3,0.8-2V19.8c0-0.8-0.3-1.5-0.8-2C59.9,17.2,59.2,16.9,58.5,16.9z"/>
	<path class="st3" d="M61.7,64.8c4,0,7.3-3.3,7.3-7.3s-3.3-7.3-7.3-7.3c-4,0-7.3,3.3-7.3,7.3S57.7,64.8,61.7,64.8z"/>
	<path class="st1" d="M65.2,56.6h-2.5v-2.5c0-0.3-0.1-0.5-0.3-0.7c-0.2-0.2-0.4-0.3-0.7-0.3c-0.3,0-0.5,0.1-0.7,0.3
		c-0.2,0.2-0.3,0.4-0.3,0.7v2.5h-2.5c-0.3,0-0.5,0.1-0.7,0.3c-0.2,0.2-0.3,0.4-0.3,0.7c0,0.3,0.1,0.5,0.3,0.7
		c0.2,0.2,0.4,0.3,0.7,0.3h2.5V61c0,0.3,0.1,0.5,0.3,0.7c0.2,0.2,0.4,0.3,0.7,0.3c0.3,0,0.5-0.1,0.7-0.3c0.2-0.2,0.3-0.4,0.3-0.7
		v-2.5h2.5c0.3,0,0.5-0.1,0.7-0.3c0.2-0.2,0.3-0.4,0.3-0.7c0-0.3-0.1-0.5-0.3-0.7C65.7,56.7,65.5,56.6,65.2,56.6z"/>
	<path class="st2" d="M53.7,37.1H37.9c-0.1,0-0.2,0-0.3-0.1c-0.1,0-0.2-0.1-0.2-0.1c-0.1-0.1-0.1-0.1-0.1-0.2c0-0.1-0.1-0.2-0.1-0.3
		c0-0.1,0-0.2,0.1-0.3c0-0.1,0.1-0.2,0.1-0.2c0.1-0.1,0.1-0.1,0.2-0.1c0.1,0,0.2-0.1,0.3-0.1h15.8c0.2,0,0.3,0.1,0.5,0.2
		c0.1,0.1,0.2,0.3,0.2,0.5c0,0.2-0.1,0.3-0.2,0.5S53.9,37.1,53.7,37.1z"/>
	<path class="st2" d="M56.5,39.3H37.9c-0.1,0-0.2,0-0.3-0.1c-0.1,0-0.2-0.1-0.2-0.1c-0.1-0.1-0.1-0.1-0.1-0.2c0-0.1-0.1-0.2-0.1-0.3
		c0-0.1,0-0.2,0.1-0.3c0-0.1,0.1-0.2,0.1-0.2c0.1-0.1,0.1-0.1,0.2-0.1c0.1,0,0.2-0.1,0.3-0.1h18.6c0.2,0,0.3,0.1,0.5,0.2
		s0.2,0.3,0.2,0.5c0,0.2-0.1,0.3-0.2,0.5S56.7,39.3,56.5,39.3z"/>
	<path class="st2" d="M53.7,47.1H37.9c-0.1,0-0.2,0-0.3-0.1c-0.1,0-0.2-0.1-0.2-0.1c-0.1-0.1-0.1-0.1-0.1-0.2c0-0.1-0.1-0.2-0.1-0.3
		c0-0.1,0-0.2,0.1-0.3c0-0.1,0.1-0.2,0.1-0.2c0.1-0.1,0.1-0.1,0.2-0.1c0.1,0,0.2-0.1,0.3-0.1h15.8c0.2,0,0.3,0.1,0.5,0.2
		c0.1,0.1,0.2,0.3,0.2,0.5c0,0.2-0.1,0.3-0.2,0.5C54.1,47,53.9,47.1,53.7,47.1z"/>
	<path class="st2" d="M56.5,49.3H37.9c-0.1,0-0.2,0-0.3-0.1c-0.1,0-0.2-0.1-0.2-0.1c-0.1-0.1-0.1-0.1-0.1-0.2c0-0.1-0.1-0.2-0.1-0.3
		c0-0.1,0-0.2,0.1-0.3c0-0.1,0.1-0.2,0.1-0.2c0.1-0.1,0.1-0.1,0.2-0.1c0.1,0,0.2-0.1,0.3-0.1h18.6c0.1,0,0.2,0,0.3,0.1
		c0.1,0,0.2,0.1,0.2,0.1c0.1,0.1,0.1,0.1,0.1,0.2c0,0.1,0.1,0.2,0.1,0.3c0,0.1,0,0.2-0.1,0.3c0,0.1-0.1,0.2-0.1,0.2
		c-0.1,0.1-0.1,0.1-0.2,0.1C56.7,49.3,56.6,49.3,56.5,49.3z"/>
	<path class="st2" d="M34.4,40.3h-5.6c-0.1,0-0.2,0-0.2-0.1c-0.1-0.1-0.1-0.1-0.1-0.2v-5c0-0.1,0-0.2,0.1-0.2s0.1-0.1,0.2-0.1h5.6
		c0.1,0,0.2,0,0.2,0.1s0.1,0.1,0.1,0.2v5c0,0.1,0,0.2-0.1,0.2C34.6,40.3,34.5,40.3,34.4,40.3z"/>
	<path class="st2" d="M34.4,50.4h-5.6c-0.1,0-0.2,0-0.2-0.1s-0.1-0.1-0.1-0.2v-5c0-0.1,0-0.2,0.1-0.2c0.1-0.1,0.1-0.1,0.2-0.1h5.6
		c0.1,0,0.2,0,0.2,0.1c0.1,0.1,0.1,0.1,0.1,0.2v5c0,0.1,0,0.2-0.1,0.2S34.5,50.4,34.4,50.4z"/>
	<path class="st4" d="M53.8,25.9H42.1c-0.2,0-0.3-0.1-0.5-0.2c-0.1-0.1-0.2-0.3-0.2-0.5c0-0.2,0.1-0.3,0.2-0.5
		c0.1-0.1,0.3-0.2,0.5-0.2h11.7c0.2,0,0.3,0.1,0.5,0.2c0.1,0.1,0.2,0.3,0.2,0.5c0,0.2-0.1,0.3-0.2,0.5
		C54.1,25.8,53.9,25.9,53.8,25.9z"/>
	<path class="st4" d="M56.5,28.1H42.1c-0.1,0-0.2,0-0.3-0.1c-0.1,0-0.2-0.1-0.2-0.1c-0.1-0.1-0.1-0.1-0.1-0.2c0-0.1-0.1-0.2-0.1-0.3
		c0-0.1,0-0.2,0.1-0.3c0-0.1,0.1-0.2,0.1-0.2c0.1-0.1,0.1-0.1,0.2-0.1c0.1,0,0.2-0.1,0.3-0.1h14.4c0.2,0,0.3,0.1,0.5,0.2
		c0.1,0.1,0.2,0.3,0.2,0.5c0,0.2-0.1,0.3-0.2,0.5C56.9,28,56.7,28.1,56.5,28.1z"/>
	<path class="st3" d="M39.5,30.8H28.8c-0.1,0-0.2,0-0.2-0.1c-0.1-0.1-0.1-0.1-0.1-0.2v-8.4c0-0.1,0-0.2,0.1-0.2
		c0.1-0.1,0.1-0.1,0.2-0.1h10.8c0.1,0,0.2,0,0.2,0.1c0.1,0.1,0.1,0.1,0.1,0.2v8.4c0,0.1,0,0.2-0.1,0.2
		C39.7,30.8,39.6,30.8,39.5,30.8z"/>
</g>
</svg>
